Coordinates
version=1
nRows=17
nColumns=24
inDegrees=yes

Units are S.I. units (second, meters, Newtons, ...)
Angles are in degrees.

endheader
time	pelvis_tilt	pelvis_list	pelvis_rotation	pelvis_tx	pelvis_ty	pelvis_tz	hip_flexion_r	hip_adduction_r	hip_rotation_r	knee_angle_r	ankle_angle_r	subtalar_angle_r	mtp_angle_r	hip_flexion_l	hip_adduction_l	hip_rotation_l	knee_angle_l	ankle_angle_l	subtalar_angle_l	mtp_angle_l	lumbar_extension	lumbar_bending	lumbar_rotation
      0.01000000	     63.77775184	      3.40241756	     -1.49463737	      0.55972772	      1.05527466	     -0.30939338	      4.47170684	    -11.73012941	      5.58659594	    -62.20844024	    -17.80173153	     -1.70000166	      0.00000000	      7.19607478	     -8.62421025	      8.33786910	      3.48106645	    -21.93761549	     12.02104596	      0.00000000	      0.00000000	      0.00000000	      0.00000000
      0.02000000	     63.77326255	      3.40657244	     -1.48782988	      0.55974282	      1.05525771	     -0.30932094	      4.47456393	    -11.73123614	      5.58549154	    -62.20654773	    -17.81036927	     -1.70808912	      0.00000000	      7.20632556	     -8.62089883	      8.38901998	      3.47620039	    -21.88641639	     12.04280342	      0.00000000	      0.00000000	      0.00000000	      0.00000000
      0.03000000	     63.76409251	      3.40657931	     -1.48144719	      0.55978449	      1.05525883	     -0.30934544	      4.47814930	    -11.73528937	      5.58285232	    -62.20313396	    -17.81832038	     -1.71567746	      0.00000000	      7.21341909	     -8.62026919	      8.44081018	      3.46889862	    -21.83440608	     12.06404077	      0.00000000	      0.00000000	      0.00000000	      0.00000000
      0.04000000	     63.75140146	      3.40296539	     -1.47587207	      0.55984468	      1.05527898	     -0.30945088	      4.48242218	    -11.74154950	      5.57851226	    -62.19847724	    -17.82517877	     -1.72233426	      0.00000000	      7.21768392	     -8.62237979	      8.49072407	      3.45970383	    -21.78393367	     12.08365287	      0.00000000	      0.00000000	      0.00000000	      0.00000000
      0.05000000	     63.73801997	      3.39736402	     -1.47150651	      0.55990589	      1.05531090	     -0.30957987	      4.48706073	    -11.74821930	      5.57271527	    -62.19347362	    -17.83058443	     -1.72758831	      0.00000000	      7.22044351	     -8.62634299	      8.53526772	      3.45001746	    -21.73840486	     12.10026160	      0.00000000	      0.00000000	      0.00000000	      0.00000000
      0.06000000	     63.72735187	      3.39191229	     -1.46856200	      0.55994604	      1.05534146	     -0.30966183	      4.49141822	    -11.75320899	      5.56628546	    -62.18951994	    -17.83438133	     -1.73111497	      0.00000000	      7.22331755	     -8.63054449	      8.57107432	      3.44158150	    -21.70138254	     12.11263393	      0.00000000	      0.00000000	      0.00000000	      0.00000000
      0.07000000	     63.72124565	      3.38815136	     -1.46686871	      0.55995796	      1.05535879	     -0.30967914	      4.49476592	    -11.75545205	      5.56047475	    -62.18791968	    -17.83663854	     -1.73285400	      0.00000000	      7.22666166	     -8.63371133	      8.59609515	      3.43537714	    -21.67552642	     12.12004184	      0.00000000	      0.00000000	      0.00000000	      0.00000000
      0.08000000	     63.71936645	      3.38636410	     -1.46602394	      0.55995438	      1.05535902	     -0.30966790	      4.49661462	    -11.75537693	      5.55647832	    -62.18921216	    -17.83758755	     -1.73301056	      0.00000000	      7.22931741	     -8.63540613	      8.61026816	      3.43131590	    -21.66181096	     12.12245219	      0.00000000	      0.00000000	      0.00000000	      0.00000000
      0.09000000	     63.72030377	      3.38589742	     -1.46578583	      0.55994992	      1.05534837	     -0.30966115	      4.49686052	    -11.75420553	      5.55485106	    -62.19288585	    -17.83753987	     -1.73194344	      0.00000000	      7.22981057	     -8.63571687	      8.61538368	      3.42884702	    -21.65927038	     12.12048406	      0.00000000	      0.00000000	      0.00000000	      0.00000000
      0.10000000	     63.72274604	      3.38607246	     -1.46623261	      0.55994884	      1.05533826	     -0.30966231	      4.49571037	    -11.75300236	      5.55527400	    -62.19768109	    -17.83681534	     -1.73001130	      0.00000000	      7.22740972	     -8.63494621	      8.61433403	      3.42752540	    -21.66527041	     12.11517593	      0.00000000	      0.00000000	      0.00000000	      0.00000000
      0.11000000	     63.72593255	      3.38667130	     -1.46758656	      0.55994846	      1.05533699	     -0.30966105	      4.49349348	    -11.75230171	      5.55684891	    -62.20228401	    -17.83569293	     -1.72745123	      0.00000000	      7.22238188	     -8.63346503	      8.61018343	      3.42712921	    -21.67616883	     12.10769606	      0.00000000	      0.00000000	      0.00000000	      0.00000000
      0.12000000	     63.72953353	      3.38771929	     -1.46989678	      0.55994642	      1.05534565	     -0.30965460	      4.49052692	    -11.75228183	      5.55863310	    -62.20591635	    -17.83438844	     -1.72432077	      0.00000000	      7.21563210	     -8.63156134	      8.60544514	      3.42747035	    -21.68817788	     12.09912475	      0.00000000	      0.00000000	      0.00000000	      0.00000000
      0.13000000	     63.73336922	      3.38909882	     -1.47277751	      0.55994294	      1.05535988	     -0.30964977	      4.48706858	    -11.75301338	      5.55999937	    -62.20846519	    -17.83305075	     -1.72051337	      0.00000000	      7.20816317	     -8.62932895	      8.60174121	      3.42820625	    -21.69821485	     12.09034794	      0.00000000	      0.00000000	      0.00000000	      0.00000000
      0.14000000	     63.73725449	      3.39052795	     -1.47544752	      0.55993918	      1.05537293	     -0.30965246	      4.48328356	    -11.75446948	      5.56064841	    -62.21020377	    -17.83176871	     -1.71584289	      0.00000000	      7.20075163	     -8.62670056	      8.59982152	      3.42886738	    -21.70452742	     12.08202312	      0.00000000	      0.00000000	      0.00000000	      0.00000000
      0.15000000	     63.74104181	      3.39184076	     -1.47711154	      0.55993536	      1.05538017	     -0.30966137	      4.47924423	    -11.75642049	      5.56045122	    -62.21137603	    -17.83058413	     -1.71017632	      0.00000000	      7.19394992	     -8.62358652	      8.59980258	      3.42907516	    -21.70694741	     12.07456893	      0.00000000	      0.00000000	      0.00000000	      0.00000000
      0.16000000	     63.74468827	      3.39314835	     -1.47740055	      0.55993089	      1.05538279	     -0.30967137	      4.47500022	    -11.75848012	      5.55937484	    -62.21191767	    -17.82951311	     -1.70356496	      0.00000000	      7.18817931	     -8.61998383	      8.60147679	      3.42875365	    -21.70674998	     12.06816876	      0.00000000	      0.00000000	      0.00000000	      0.00000000
      0.17000000	     63.74812024	      3.39465999	     -1.47652378	      0.55992528	      1.05538532	     -0.30967827	      4.47065557	    -11.76030019	      5.55754876	    -62.21149160	    -17.82858853	     -1.69629934	      0.00000000	      7.18363228	     -8.61595443	      8.60459553	      3.42816702	    -21.70621368	     12.06281309	      0.00000000	      0.00000000	      0.00000000	      0.00000000
